<?xml version="1.0" encoding="utf-8"?>
<!-- Generator: Adobe Illustrator 28.1.0, SVG Export Plug-In . SVG Version: 6.00 Build 0)  -->
<svg version="1.1" id="Layer_1" xmlns="http://www.w3.org/2000/svg" xmlns:xlink="http://www.w3.org/1999/xlink" x="0px" y="0px"
	 viewBox="0 0 133 54" style="enable-background:new 0 0 133 54;" xml:space="preserve">
<path d="M129.5,26.5h-7.6c-0.7-1.9-1.6-3.3-5.8-3.3c-3,0-4.2,1.2-4.2,2.4c0,1.3,1.1,2.5,4.3,3.2l6.9,1.8c4.5,1.2,6.7,4.8,6.7,8.6
	c0,2.1-0.5,4.7-2.5,6.8c-1.5,1.6-3.8,3.6-11.3,3.6c-10.3,0-13.7-6.5-13.7-10.5h8c0.8,2.9,2.8,4,6.7,4c2.7,0,5-1,5-3
	c0-2-1.7-2.7-3.9-3.3l-5.5-1.5c-2.6-0.8-4.8-1.4-6.4-2.8c-4.1-3.4-3.8-9.7,0.7-12.9c2.5-1.8,5-2.7,9-2.7c4.7,0,7.4,1.3,9.5,2.8
	C127.2,20.9,129.5,24,129.5,26.5 M0.5,4.4c0.1,0.3,16,44.8,16,44.8H26l14.6-37.1h90.9l0.7-7.8H33.6L21.5,35.1L10.6,4.4H0.5
	 M79.1,33.2l11.9,16h7.4V17.5h-8.6v17.2L79,17.5h-8.2v31.7h8.2V33.2z M132.5,47.6c0-0.9-0.7-1.7-1.7-1.7c-0.9,0-1.7,0.8-1.7,1.7
	c0,0.9,0.7,1.7,1.7,1.7S132.5,48.5,132.5,47.6z M132.3,47.6c0,0.8-0.6,1.5-1.5,1.5c-0.8,0-1.5-0.7-1.5-1.5c0-0.8,0.6-1.5,1.5-1.5
	C131.7,46.1,132.3,46.7,132.3,47.6z M131.6,47.2c0-0.4-0.3-0.6-0.7-0.6h-0.8v1.8h0.4v-0.6h0.3l0.4,0.6h0.5l-0.4-0.6
	C131.5,47.7,131.6,47.5,131.6,47.2z M131.2,47.2c0,0.2-0.1,0.3-0.3,0.3h-0.4V47h0.4C131.1,47,131.2,47.1,131.2,47.2z M33.8,49.2h9.1
	l1.7-5h12.1l1.7,5h9L55.9,17.5h-9.7L33.8,49.2z M47.2,38.5L50.7,28l3.5,10.5H47.2z"/>
</svg>
